# xmcd
#
# Track frame offsets:
#	225
#	10780
#	22307
#	35333
#	45116
#	62270
#	93006
#	106246
#	119747
#	136202
#	150142
#	163820
#	184382
#	195664
#
# Disc length: 2831 seconds
#
# Revision: 1
# Processed by: cddbd v1.5.1PL0 Copyright (c) Steve Scherf et al.
# Submitted via: audiograbber 1.83.01
#
DISCID=a80b0c0e
DTITLE=Honza Vycital - Pivni dzip
DYEAR=1997
DGENRE=Country
TTITLE0=Zvireci farma
TTITLE1=Dva tulaci
TTITLE2=Billy
TTITLE3=Ja zapomel vic
TTITLE4=Pod Moskvou hlucne vecery
TTITLE5=Lily,Rosemarie a srdcovej kluk
TTITLE6=Acko
TTITLE7=Porad cestuju sam
TTITLE8=Hraci
TTITLE9=Nemam ten spravnej vodpich
TTITLE10=Nevyzrad to Marii
TTITLE11=Hvezda tva,ta indianska
TTITLE12=Za kradez dva prsty brat
TTITLE13=Cadillac
EXTD=
EXTT0=
EXTT1=
EXTT2=
EXTT3=
EXTT4=
EXTT5=
EXTT6=
EXTT7=
EXTT8=
EXTT9=
EXTT10=
EXTT11=
EXTT12=
EXTT13=
PLAYORDER=
